<svg xmlns="http://www.w3.org/2000/svg" xmlns:xlink="http://www.w3.org/1999/xlink" width="500" zoomAndPan="magnify" viewBox="0 0 375 374.999991" height="500" preserveAspectRatio="xMidYMid meet" version="1.0"><defs><filter x="0%" y="0%" width="100%" height="100%" id="4b137b4563"><feColorMatrix values="0 0 0 0 1 0 0 0 0 1 0 0 0 0 1 0 0 0 1 0" color-interpolation-filters="sRGB"/></filter><g/><clipPath id="e649a9aeb0"><path d="M 0 0.757812 L 375 0.757812 L 375 262.242188 L 0 262.242188 Z M 0 0.757812 " clip-rule="nonzero"/></clipPath><clipPath id="6b80f38900"><path d="M 0 0.757812 L 375 0.757812 L 375 262.242188 L 0 262.242188 Z M 0 0.757812 " clip-rule="nonzero"/></clipPath><clipPath id="59868ee18d"><path d="M 0 0.757812 L 375 0.757812 L 375 260.949219 L 0 260.949219 Z M 0 0.757812 " clip-rule="nonzero"/></clipPath><linearGradient x1="99" gradientTransform="matrix(1.29323, 0, 0, 1.292444, 83.74653, 97.25997)" y1="-74.667" x2="99" gradientUnits="userSpaceOnUse" y2="126.650353" id="e8fe040164"><stop stop-opacity="1" stop-color="rgb(92.549133%, 65.879822%, 100%)" offset="0"/><stop stop-opacity="1" stop-color="rgb(92.549133%, 65.879822%, 100%)" offset="0.25"/><stop stop-opacity="1" stop-color="rgb(92.549133%, 65.879822%, 100%)" offset="0.3125"/><stop stop-opacity="1" stop-color="rgb(92.549133%, 65.879822%, 100%)" offset="0.34375"/><stop stop-opacity="1" stop-color="rgb(92.549133%, 65.879822%, 100%)" offset="0.359375"/><stop stop-opacity="1" stop-color="rgb(92.549133%, 65.879822%, 100%)" offset="0.367188"/><stop stop-opacity="1" stop-color="rgb(92.608643%, 65.579224%, 99.728394%)" offset="0.371094"/><stop stop-opacity="1" stop-color="rgb(92.668152%, 65.280151%, 99.456787%)" offset="0.375"/><stop stop-opacity="1" stop-color="rgb(92.779541%, 64.710999%, 98.94104%)" offset="0.378906"/><stop stop-opacity="1" stop-color="rgb(92.892456%, 64.141846%, 98.425293%)" offset="0.382812"/><stop stop-opacity="1" stop-color="rgb(93.005371%, 63.572693%, 97.90802%)" offset="0.386719"/><stop stop-opacity="1" stop-color="rgb(93.118286%, 63.00354%, 97.392273%)" offset="0.390625"/><stop stop-opacity="1" stop-color="rgb(93.231201%, 62.434387%, 96.876526%)" offset="0.394531"/><stop stop-opacity="1" stop-color="rgb(93.344116%, 61.865234%, 96.360779%)" offset="0.398438"/><stop stop-opacity="1" stop-color="rgb(93.455505%, 61.296082%, 95.845032%)" offset="0.402344"/><stop stop-opacity="1" stop-color="rgb(93.56842%, 60.726929%, 95.329285%)" offset="0.40625"/><stop stop-opacity="1" stop-color="rgb(93.681335%, 60.157776%, 94.812012%)" offset="0.410156"/><stop stop-opacity="1" stop-color="rgb(93.79425%, 59.588623%, 94.296265%)" offset="0.414062"/><stop stop-opacity="1" stop-color="rgb(93.907166%, 59.01947%, 93.780518%)" offset="0.417969"/><stop stop-opacity="1" stop-color="rgb(94.020081%, 58.450317%, 93.264771%)" offset="0.421875"/><stop stop-opacity="1" stop-color="rgb(94.13147%, 57.881165%, 92.749023%)" offset="0.425781"/><stop stop-opacity="1" stop-color="rgb(94.244385%, 57.312012%, 92.233276%)" offset="0.429688"/><stop stop-opacity="1" stop-color="rgb(94.3573%, 56.741333%, 91.716003%)" offset="0.433594"/><stop stop-opacity="1" stop-color="rgb(94.470215%, 56.17218%, 91.200256%)" offset="0.4375"/><stop stop-opacity="1" stop-color="rgb(94.58313%, 55.603027%, 90.684509%)" offset="0.441406"/><stop stop-opacity="1" stop-color="rgb(94.696045%, 55.033875%, 90.168762%)" offset="0.445312"/><stop stop-opacity="1" stop-color="rgb(94.807434%, 54.464722%, 89.653015%)" offset="0.449219"/><stop stop-opacity="1" stop-color="rgb(94.920349%, 53.895569%, 89.137268%)" offset="0.453125"/><stop stop-opacity="1" stop-color="rgb(95.033264%, 53.326416%, 88.619995%)" offset="0.457031"/><stop stop-opacity="1" stop-color="rgb(95.146179%, 52.757263%, 88.104248%)" offset="0.460937"/><stop stop-opacity="1" stop-color="rgb(95.259094%, 52.18811%, 87.588501%)" offset="0.464844"/><stop stop-opacity="1" stop-color="rgb(95.372009%, 51.618958%, 87.072754%)" offset="0.46875"/><stop stop-opacity="1" stop-color="rgb(95.483398%, 51.049805%, 86.557007%)" offset="0.472656"/><stop stop-opacity="1" stop-color="rgb(95.596313%, 50.480652%, 86.04126%)" offset="0.476562"/><stop stop-opacity="1" stop-color="rgb(95.709229%, 49.911499%, 85.523987%)" offset="0.480469"/><stop stop-opacity="1" stop-color="rgb(95.822144%, 49.342346%, 85.00824%)" offset="0.484375"/><stop stop-opacity="1" stop-color="rgb(95.935059%, 48.773193%, 84.492493%)" offset="0.488281"/><stop stop-opacity="1" stop-color="rgb(96.047974%, 48.204041%, 83.976746%)" offset="0.492188"/><stop stop-opacity="1" stop-color="rgb(96.160889%, 47.634888%, 83.460999%)" offset="0.496094"/><stop stop-opacity="1" stop-color="rgb(96.273804%, 47.065735%, 82.945251%)" offset="0.5"/><stop stop-opacity="1" stop-color="rgb(96.385193%, 46.496582%, 82.427979%)" offset="0.503906"/><stop stop-opacity="1" stop-color="rgb(96.498108%, 45.927429%, 81.912231%)" offset="0.507812"/><stop stop-opacity="1" stop-color="rgb(96.611023%, 45.35675%, 81.396484%)" offset="0.511719"/><stop stop-opacity="1" stop-color="rgb(96.723938%, 44.787598%, 80.880737%)" offset="0.515625"/><stop stop-opacity="1" stop-color="rgb(96.836853%, 44.218445%, 80.36499%)" offset="0.519531"/><stop stop-opacity="1" stop-color="rgb(96.949768%, 43.649292%, 79.849243%)" offset="0.523437"/><stop stop-opacity="1" stop-color="rgb(97.061157%, 43.080139%, 79.33197%)" offset="0.527344"/><stop stop-opacity="1" stop-color="rgb(97.174072%, 42.510986%, 78.816223%)" offset="0.53125"/><stop stop-opacity="1" stop-color="rgb(97.286987%, 41.941833%, 78.300476%)" offset="0.535156"/><stop stop-opacity="1" stop-color="rgb(97.399902%, 41.372681%, 77.784729%)" offset="0.539062"/><stop stop-opacity="1" stop-color="rgb(97.512817%, 40.803528%, 77.268982%)" offset="0.542969"/><stop stop-opacity="1" stop-color="rgb(97.625732%, 40.234375%, 76.753235%)" offset="0.546875"/><stop stop-opacity="1" stop-color="rgb(97.737122%, 39.665222%, 76.235962%)" offset="0.550781"/><stop stop-opacity="1" stop-color="rgb(97.850037%, 39.096069%, 75.720215%)" offset="0.554687"/><stop stop-opacity="1" stop-color="rgb(97.962952%, 38.526917%, 75.204468%)" offset="0.558594"/><stop stop-opacity="1" stop-color="rgb(98.075867%, 37.957764%, 74.688721%)" offset="0.5625"/><stop stop-opacity="1" stop-color="rgb(98.188782%, 37.388611%, 74.172974%)" offset="0.566406"/><stop stop-opacity="1" stop-color="rgb(98.301697%, 36.819458%, 73.657227%)" offset="0.570312"/><stop stop-opacity="1" stop-color="rgb(98.413086%, 36.250305%, 73.139954%)" offset="0.574219"/><stop stop-opacity="1" stop-color="rgb(98.526001%, 35.681152%, 72.624207%)" offset="0.578125"/><stop stop-opacity="1" stop-color="rgb(98.638916%, 35.112%, 72.108459%)" offset="0.582031"/><stop stop-opacity="1" stop-color="rgb(98.751831%, 34.542847%, 71.592712%)" offset="0.585938"/><stop stop-opacity="1" stop-color="rgb(98.864746%, 33.972168%, 71.076965%)" offset="0.589844"/><stop stop-opacity="1" stop-color="rgb(98.977661%, 33.403015%, 70.561218%)" offset="0.59375"/><stop stop-opacity="1" stop-color="rgb(99.08905%, 32.833862%, 70.043945%)" offset="0.597656"/><stop stop-opacity="1" stop-color="rgb(99.201965%, 32.264709%, 69.528198%)" offset="0.601562"/><stop stop-opacity="1" stop-color="rgb(99.31488%, 31.695557%, 69.012451%)" offset="0.605469"/><stop stop-opacity="1" stop-color="rgb(99.427795%, 31.126404%, 68.496704%)" offset="0.609375"/><stop stop-opacity="1" stop-color="rgb(99.54071%, 30.557251%, 67.980957%)" offset="0.613281"/><stop stop-opacity="1" stop-color="rgb(99.653625%, 29.988098%, 67.46521%)" offset="0.617188"/><stop stop-opacity="1" stop-color="rgb(99.765015%, 29.418945%, 66.947937%)" offset="0.621094"/><stop stop-opacity="1" stop-color="rgb(99.87793%, 28.849792%, 66.43219%)" offset="0.625"/><stop stop-opacity="1" stop-color="rgb(99.938965%, 28.544617%, 66.156006%)" offset="0.628906"/><stop stop-opacity="1" stop-color="rgb(100%, 28.239441%, 65.879822%)" offset="0.632812"/><stop stop-opacity="1" stop-color="rgb(100%, 28.239441%, 65.879822%)" offset="0.640625"/><stop stop-opacity="1" stop-color="rgb(100%, 28.239441%, 65.879822%)" offset="0.65625"/><stop stop-opacity="1" stop-color="rgb(100%, 28.239441%, 65.879822%)" offset="0.6875"/><stop stop-opacity="1" stop-color="rgb(100%, 28.239441%, 65.879822%)" offset="0.75"/><stop stop-opacity="1" stop-color="rgb(100%, 28.239441%, 65.879822%)" offset="1"/></linearGradient><clipPath id="92d26e3894"><rect x="0" width="375" y="0" height="263"/></clipPath><clipPath id="65d07ab2d1"><path d="M 0 0.757812 L 375 0.757812 L 375 262.242188 L 0 262.242188 Z M 0 0.757812 " clip-rule="nonzero"/></clipPath><clipPath id="00797eec1a"><rect x="0" width="375" y="0" height="263"/></clipPath><clipPath id="1a59488823"><rect x="0" width="375" y="0" height="263"/></clipPath><mask id="e711672cb5"><g filter="url(#4b137b4563)"><g transform="matrix(1, 0, 0, 1, 0, 0)"><g clip-path="url(#1a59488823)"><g clip-path="url(#65d07ab2d1)"><g transform="matrix(1, 0, 0, 1, 0, 0)"><g clip-path="url(#00797eec1a)"><g fill="#000000" fill-opacity="1"><g transform="translate(84.268967, 147.033804)"><g><path d="M 34.84375 -33.921875 L 22.8125 0 L 12.46875 0 L 0.4375 -33.921875 L 9.234375 -33.921875 L 17.640625 -8.3125 L 26.09375 -33.921875 Z M 34.84375 -33.921875 "/></g></g></g><g fill="#000000" fill-opacity="1"><g transform="translate(119.54318, 147.033804)"><g><path d="M 1.359375 -13.53125 C 1.359375 -16.300781 1.878906 -18.734375 2.921875 -20.828125 C 3.972656 -22.921875 5.398438 -24.53125 7.203125 -25.65625 C 9.003906 -26.789062 11.015625 -27.359375 13.234375 -27.359375 C 15.140625 -27.359375 16.804688 -26.96875 18.234375 -26.1875 C 19.671875 -25.414062 20.773438 -24.40625 21.546875 -23.15625 L 21.546875 -26.96875 L 29.8125 -26.96875 L 29.8125 0 L 21.546875 0 L 21.546875 -3.8125 C 20.742188 -2.5625 19.625 -1.546875 18.1875 -0.765625 C 16.757812 0.00390625 15.09375 0.390625 13.1875 0.390625 C 11 0.390625 9.003906 -0.179688 7.203125 -1.328125 C 5.398438 -2.472656 3.972656 -4.097656 2.921875 -6.203125 C 1.878906 -8.316406 1.359375 -10.757812 1.359375 -13.53125 Z M 21.546875 -13.484375 C 21.546875 -15.546875 20.972656 -17.171875 19.828125 -18.359375 C 18.691406 -19.554688 17.300781 -20.15625 15.65625 -20.15625 C 14.007812 -20.15625 12.613281 -19.566406 11.46875 -18.390625 C 10.332031 -17.210938 9.765625 -15.59375 9.765625 -13.53125 C 9.765625 -11.46875 10.332031 -9.832031 11.46875 -8.625 C 12.613281 -7.414062 14.007812 -6.8125 15.65625 -6.8125 C 17.300781 -6.8125 18.691406 -7.40625 19.828125 -8.59375 C 20.972656 -9.789062 21.546875 -11.421875 21.546875 -13.484375 Z M 26.234375 -36.046875 L 26.234375 -30.34375 L 6.90625 -30.34375 L 6.90625 -36.046875 Z M 26.234375 -36.046875 "/></g></g></g><g fill="#000000" fill-opacity="1"><g transform="translate(152.35302, 147.033804)"><g><path d="M 1.359375 -13.484375 C 1.359375 -16.285156 1.925781 -18.734375 3.0625 -20.828125 C 4.207031 -22.921875 5.800781 -24.53125 7.84375 -25.65625 C 9.894531 -26.789062 12.242188 -27.359375 14.890625 -27.359375 C 18.265625 -27.359375 21.085938 -26.46875 23.359375 -24.6875 C 25.640625 -22.914062 27.132812 -20.421875 27.84375 -17.203125 L 19.046875 -17.203125 C 18.304688 -19.265625 16.867188 -20.296875 14.734375 -20.296875 C 13.222656 -20.296875 12.015625 -19.707031 11.109375 -18.53125 C 10.210938 -17.351562 9.765625 -15.671875 9.765625 -13.484375 C 9.765625 -11.296875 10.210938 -9.613281 11.109375 -8.4375 C 12.015625 -7.257812 13.222656 -6.671875 14.734375 -6.671875 C 16.867188 -6.671875 18.304688 -7.703125 19.046875 -9.765625 L 27.84375 -9.765625 C 27.132812 -6.609375 25.632812 -4.125 23.34375 -2.3125 C 21.050781 -0.507812 18.234375 0.390625 14.890625 0.390625 C 12.242188 0.390625 9.894531 -0.171875 7.84375 -1.296875 C 5.800781 -2.429688 4.207031 -4.046875 3.0625 -6.140625 C 1.925781 -8.234375 1.359375 -10.679688 1.359375 -13.484375 Z M 1.359375 -13.484375 "/></g></g></g><g fill="#000000" fill-opacity="1"><g transform="translate(181.587128, 147.033804)"><g><path d="M 1.359375 -13.53125 C 1.359375 -16.300781 1.878906 -18.734375 2.921875 -20.828125 C 3.972656 -22.921875 5.398438 -24.53125 7.203125 -25.65625 C 9.003906 -26.789062 11.015625 -27.359375 13.234375 -27.359375 C 15.140625 -27.359375 16.804688 -26.96875 18.234375 -26.1875 C 19.671875 -25.414062 20.773438 -24.40625 21.546875 -23.15625 L 21.546875 -26.96875 L 29.8125 -26.96875 L 29.8125 0 L 21.546875 0 L 21.546875 -3.8125 C 20.742188 -2.5625 19.625 -1.546875 18.1875 -0.765625 C 16.757812 0.00390625 15.09375 0.390625 13.1875 0.390625 C 11 0.390625 9.003906 -0.179688 7.203125 -1.328125 C 5.398438 -2.472656 3.972656 -4.097656 2.921875 -6.203125 C 1.878906 -8.316406 1.359375 -10.757812 1.359375 -13.53125 Z M 21.546875 -13.484375 C 21.546875 -15.546875 20.972656 -17.171875 19.828125 -18.359375 C 18.691406 -19.554688 17.300781 -20.15625 15.65625 -20.15625 C 14.007812 -20.15625 12.613281 -19.566406 11.46875 -18.390625 C 10.332031 -17.210938 9.765625 -15.59375 9.765625 -13.53125 C 9.765625 -11.46875 10.332031 -9.832031 11.46875 -8.625 C 12.613281 -7.414062 14.007812 -6.8125 15.65625 -6.8125 C 17.300781 -6.8125 18.691406 -7.40625 19.828125 -8.59375 C 20.972656 -9.789062 21.546875 -11.421875 21.546875 -13.484375 Z M 21.546875 -13.484375 "/></g></g></g><g fill="#000000" fill-opacity="1"><g transform="translate(214.396968, 147.033804)"><g><path d="M 19.46875 0 L 11.265625 -11.3125 L 11.265625 0 L 3 0 L 3 -35.765625 L 11.265625 -35.765625 L 11.265625 -16 L 19.421875 -26.96875 L 29.625 -26.96875 L 18.40625 -13.4375 L 29.71875 0 Z M 19.46875 0 "/></g></g></g><g fill="#000000" fill-opacity="1"><g transform="translate(244.259237, 147.033804)"><g><path d="M 1.359375 -13.53125 C 1.359375 -16.300781 1.878906 -18.734375 2.921875 -20.828125 C 3.972656 -22.921875 5.398438 -24.53125 7.203125 -25.65625 C 9.003906 -26.789062 11.015625 -27.359375 13.234375 -27.359375 C 15.140625 -27.359375 16.804688 -26.96875 18.234375 -26.1875 C 19.671875 -25.414062 20.773438 -24.40625 21.546875 -23.15625 L 21.546875 -26.96875 L 29.8125 -26.96875 L 29.8125 0 L 21.546875 0 L 21.546875 -3.8125 C 20.742188 -2.5625 19.625 -1.546875 18.1875 -0.765625 C 16.757812 0.00390625 15.09375 0.390625 13.1875 0.390625 C 11 0.390625 9.003906 -0.179688 7.203125 -1.328125 C 5.398438 -2.472656 3.972656 -4.097656 2.921875 -6.203125 C 1.878906 -8.316406 1.359375 -10.757812 1.359375 -13.53125 Z M 21.546875 -13.484375 C 21.546875 -15.546875 20.972656 -17.171875 19.828125 -18.359375 C 18.691406 -19.554688 17.300781 -20.15625 15.65625 -20.15625 C 14.007812 -20.15625 12.613281 -19.566406 11.46875 -18.390625 C 10.332031 -17.210938 9.765625 -15.59375 9.765625 -13.53125 C 9.765625 -11.46875 10.332031 -9.832031 11.46875 -8.625 C 12.613281 -7.414062 14.007812 -6.8125 15.65625 -6.8125 C 17.300781 -6.8125 18.691406 -7.40625 19.828125 -8.59375 C 20.972656 -9.789062 21.546875 -11.421875 21.546875 -13.484375 Z M 21.546875 -13.484375 "/></g></g></g><g fill="#000000" fill-opacity="1"><g transform="translate(277.069078, 147.033804)"><g><path d="M 6.859375 0.390625 C 5.410156 0.390625 4.226562 -0.0351562 3.3125 -0.890625 C 2.394531 -1.742188 1.9375 -2.800781 1.9375 -4.0625 C 1.9375 -5.351562 2.394531 -6.429688 3.3125 -7.296875 C 4.226562 -8.171875 5.410156 -8.609375 6.859375 -8.609375 C 8.273438 -8.609375 9.441406 -8.171875 10.359375 -7.296875 C 11.285156 -6.429688 11.75 -5.351562 11.75 -4.0625 C 11.75 -2.800781 11.285156 -1.742188 10.359375 -0.890625 C 9.441406 -0.0351562 8.273438 0.390625 6.859375 0.390625 Z M 6.859375 0.390625 "/></g></g></g><g fill="#000000" fill-opacity="1"><g transform="translate(290.695555, 147.033804)"><g><path d="M 24.109375 -6 L 11.453125 -6 L 9.421875 0 L 0.765625 0 L 13.046875 -33.921875 L 22.625 -33.921875 L 34.890625 0 L 26.140625 0 Z M 21.984375 -12.375 L 17.78125 -24.796875 L 13.625 -12.375 Z M 21.984375 -12.375 "/></g></g></g><g fill="#000000" fill-opacity="1"><g transform="translate(326.308005, 147.033804)"><g><path d="M 11.265625 -33.921875 L 11.265625 0 L 3 0 L 3 -33.921875 Z M 11.265625 -33.921875 "/></g></g></g></g></g></g></g></g></g></mask><clipPath id="670f4c6b12"><path d="M 0 0.757812 L 375 0.757812 L 375 260.949219 L 0 260.949219 Z M 0 0.757812 " clip-rule="nonzero"/></clipPath><clipPath id="9273315eba"><rect x="0" width="375" y="0" height="263"/></clipPath><clipPath id="13fe9c970f"><rect x="0" width="375" y="0" height="263"/></clipPath><clipPath id="a502a79b0f"><rect x="0" width="375" y="0" height="263"/></clipPath><clipPath id="04be3fb433"><path d="M 0 0.386719 L 178.511719 0.386719 L 178.511719 279.996094 L 0 279.996094 Z M 0 0.386719 " clip-rule="nonzero"/></clipPath><clipPath id="f06e3aab73"><path d="M 0 0.386719 L 178.511719 0.386719 L 178.511719 279.996094 L 0 279.996094 Z M 0 0.386719 " clip-rule="nonzero"/></clipPath><clipPath id="f792cc15a2"><path d="M 0 26.277344 L 178.511719 26.277344 L 178.511719 255.398438 L 0 255.398438 Z M 0 26.277344 " clip-rule="nonzero"/></clipPath><linearGradient x1="-61.243636" gradientTransform="matrix(0, 1.297542, -1.29244, 0, 82.008472, 97.715097)" y1="-68.480519" x2="96.105362" gradientUnits="userSpaceOnUse" y2="88.872446" id="c0ca5396c5"><stop stop-opacity="1" stop-color="rgb(92.549133%, 65.879822%, 100%)" offset="0"/><stop stop-opacity="1" stop-color="rgb(92.549133%, 65.879822%, 100%)" offset="0.25"/><stop stop-opacity="1" stop-color="rgb(92.549133%, 65.879822%, 100%)" offset="0.375"/><stop stop-opacity="1" stop-color="rgb(92.549133%, 65.879822%, 100%)" offset="0.4375"/><stop stop-opacity="1" stop-color="rgb(92.549133%, 65.879822%, 100%)" offset="0.438895"/><stop stop-opacity="1" stop-color="rgb(92.549133%, 65.879822%, 100%)" offset="0.46875"/><stop stop-opacity="1" stop-color="rgb(92.579651%, 65.727234%, 99.861145%)" offset="0.476562"/><stop stop-opacity="1" stop-color="rgb(92.724609%, 64.990234%, 99.19281%)" offset="0.480469"/><stop stop-opacity="1" stop-color="rgb(92.840576%, 64.407349%, 98.664856%)" offset="0.484375"/><stop stop-opacity="1" stop-color="rgb(92.956543%, 63.822937%, 98.135376%)" offset="0.488281"/><stop stop-opacity="1" stop-color="rgb(93.07251%, 63.238525%, 97.605896%)" offset="0.492188"/><stop stop-opacity="1" stop-color="rgb(93.186951%, 62.654114%, 97.076416%)" offset="0.496094"/><stop stop-opacity="1" stop-color="rgb(93.302917%, 62.071228%, 96.546936%)" offset="0.5"/><stop stop-opacity="1" stop-color="rgb(93.417358%, 61.486816%, 96.017456%)" offset="0.503906"/><stop stop-opacity="1" stop-color="rgb(93.533325%, 60.903931%, 95.489502%)" offset="0.507812"/><stop stop-opacity="1" stop-color="rgb(93.649292%, 60.319519%, 94.960022%)" offset="0.511719"/><stop stop-opacity="1" stop-color="rgb(93.765259%, 59.735107%, 94.430542%)" offset="0.515625"/><stop stop-opacity="1" stop-color="rgb(93.8797%, 59.150696%, 93.901062%)" offset="0.519531"/><stop stop-opacity="1" stop-color="rgb(93.995667%, 58.56781%, 93.371582%)" offset="0.523438"/><stop stop-opacity="1" stop-color="rgb(94.111633%, 57.983398%, 92.842102%)" offset="0.527344"/><stop stop-opacity="1" stop-color="rgb(94.2276%, 57.400513%, 92.312622%)" offset="0.53125"/><stop stop-opacity="1" stop-color="rgb(94.342041%, 56.816101%, 91.783142%)" offset="0.535156"/><stop stop-opacity="1" stop-color="rgb(94.458008%, 56.233215%, 91.255188%)" offset="0.539062"/><stop stop-opacity="1" stop-color="rgb(94.573975%, 55.648804%, 90.725708%)" offset="0.542969"/><stop stop-opacity="1" stop-color="rgb(94.689941%, 55.064392%, 90.196228%)" offset="0.546875"/><stop stop-opacity="1" stop-color="rgb(94.804382%, 54.47998%, 89.666748%)" offset="0.550781"/><stop stop-opacity="1" stop-color="rgb(94.920349%, 53.897095%, 89.137268%)" offset="0.554688"/><stop stop-opacity="1" stop-color="rgb(95.036316%, 53.312683%, 88.607788%)" offset="0.558594"/><stop stop-opacity="1" stop-color="rgb(95.152283%, 52.729797%, 88.079834%)" offset="0.5625"/><stop stop-opacity="1" stop-color="rgb(95.266724%, 52.145386%, 87.550354%)" offset="0.566406"/><stop stop-opacity="1" stop-color="rgb(95.38269%, 51.5625%, 87.020874%)" offset="0.570312"/><stop stop-opacity="1" stop-color="rgb(95.498657%, 50.978088%, 86.491394%)" offset="0.574219"/><stop stop-opacity="1" stop-color="rgb(95.614624%, 50.393677%, 85.961914%)" offset="0.578125"/><stop stop-opacity="1" stop-color="rgb(95.729065%, 49.809265%, 85.432434%)" offset="0.582031"/><stop stop-opacity="1" stop-color="rgb(95.845032%, 49.226379%, 84.90448%)" offset="0.585938"/><stop stop-opacity="1" stop-color="rgb(95.960999%, 48.641968%, 84.375%)" offset="0.589844"/><stop stop-opacity="1" stop-color="rgb(96.076965%, 48.059082%, 83.84552%)" offset="0.59375"/><stop stop-opacity="1" stop-color="rgb(96.191406%, 47.47467%, 83.31604%)" offset="0.597656"/><stop stop-opacity="1" stop-color="rgb(96.307373%, 46.890259%, 82.78656%)" offset="0.601562"/><stop stop-opacity="1" stop-color="rgb(96.42334%, 46.305847%, 82.25708%)" offset="0.605469"/><stop stop-opacity="1" stop-color="rgb(96.539307%, 45.722961%, 81.7276%)" offset="0.609375"/><stop stop-opacity="1" stop-color="rgb(96.653748%, 45.13855%, 81.19812%)" offset="0.613281"/><stop stop-opacity="1" stop-color="rgb(96.769714%, 44.555664%, 80.670166%)" offset="0.617188"/><stop stop-opacity="1" stop-color="rgb(96.885681%, 43.971252%, 80.140686%)" offset="0.621094"/><stop stop-opacity="1" stop-color="rgb(97.001648%, 43.388367%, 79.611206%)" offset="0.625"/><stop stop-opacity="1" stop-color="rgb(97.116089%, 42.803955%, 79.081726%)" offset="0.628906"/><stop stop-opacity="1" stop-color="rgb(97.232056%, 42.219543%, 78.552246%)" offset="0.632812"/><stop stop-opacity="1" stop-color="rgb(97.346497%, 41.635132%, 78.022766%)" offset="0.636719"/><stop stop-opacity="1" stop-color="rgb(97.462463%, 41.052246%, 77.494812%)" offset="0.640625"/><stop stop-opacity="1" stop-color="rgb(97.57843%, 40.467834%, 76.965332%)" offset="0.644531"/><stop stop-opacity="1" stop-color="rgb(97.694397%, 39.884949%, 76.435852%)" offset="0.648437"/><stop stop-opacity="1" stop-color="rgb(97.808838%, 39.300537%, 75.906372%)" offset="0.652344"/><stop stop-opacity="1" stop-color="rgb(97.924805%, 38.717651%, 75.376892%)" offset="0.65625"/><stop stop-opacity="1" stop-color="rgb(98.040771%, 38.13324%, 74.847412%)" offset="0.660156"/><stop stop-opacity="1" stop-color="rgb(98.156738%, 37.548828%, 74.317932%)" offset="0.664062"/><stop stop-opacity="1" stop-color="rgb(98.271179%, 36.964417%, 73.788452%)" offset="0.667969"/><stop stop-opacity="1" stop-color="rgb(98.387146%, 36.381531%, 73.260498%)" offset="0.671875"/><stop stop-opacity="1" stop-color="rgb(98.503113%, 35.797119%, 72.731018%)" offset="0.675781"/><stop stop-opacity="1" stop-color="rgb(98.61908%, 35.214233%, 72.201538%)" offset="0.679688"/><stop stop-opacity="1" stop-color="rgb(98.733521%, 34.629822%, 71.672058%)" offset="0.683594"/><stop stop-opacity="1" stop-color="rgb(98.849487%, 34.046936%, 71.142578%)" offset="0.6875"/><stop stop-opacity="1" stop-color="rgb(98.965454%, 33.462524%, 70.613098%)" offset="0.691406"/><stop stop-opacity="1" stop-color="rgb(99.081421%, 32.878113%, 70.085144%)" offset="0.695312"/><stop stop-opacity="1" stop-color="rgb(99.195862%, 32.293701%, 69.555664%)" offset="0.699219"/><stop stop-opacity="1" stop-color="rgb(99.311829%, 31.710815%, 69.026184%)" offset="0.703125"/><stop stop-opacity="1" stop-color="rgb(99.427795%, 31.126404%, 68.496704%)" offset="0.707031"/><stop stop-opacity="1" stop-color="rgb(99.543762%, 30.543518%, 67.967224%)" offset="0.710938"/><stop stop-opacity="1" stop-color="rgb(99.658203%, 29.959106%, 67.437744%)" offset="0.714844"/><stop stop-opacity="1" stop-color="rgb(99.77417%, 29.374695%, 66.90979%)" offset="0.71875"/><stop stop-opacity="1" stop-color="rgb(99.887085%, 28.807068%, 66.394043%)" offset="0.722656"/><stop stop-opacity="1" stop-color="rgb(100%, 28.239441%, 65.879822%)" offset="0.726562"/><stop stop-opacity="1" stop-color="rgb(100%, 28.239441%, 65.879822%)" offset="0.734375"/><stop stop-opacity="1" stop-color="rgb(100%, 28.239441%, 65.879822%)" offset="0.75"/><stop stop-opacity="1" stop-color="rgb(100%, 28.239441%, 65.879822%)" offset="1"/></linearGradient><clipPath id="0b96d32592"><rect x="0" width="179" y="0" height="280"/></clipPath><clipPath id="282818e4b2"><path d="M 0 0.386719 L 178.511719 0.386719 L 178.511719 279.996094 L 0 279.996094 Z M 0 0.386719 " clip-rule="nonzero"/></clipPath><clipPath id="c13b1e5ef0"><rect x="0" width="179" y="0" height="280"/></clipPath><clipPath id="956646fd0b"><rect x="0" width="179" y="0" height="280"/></clipPath><mask id="ba9c5dede4"><g filter="url(#4b137b4563)"><g transform="matrix(1, 0, 0, 1, 0, 0)"><g clip-path="url(#956646fd0b)"><g clip-path="url(#282818e4b2)"><g transform="matrix(1, 0, 0, 1, 0, 0)"><g clip-path="url(#c13b1e5ef0)"><g fill="#000000" fill-opacity="1"><g transform="translate(32.234755, 122.857039)"><g><path d="M 33.921875 34.84375 L 0 22.8125 L 0 12.46875 L 33.921875 0.4375 L 33.921875 9.234375 L 8.3125 17.640625 L 33.921875 26.09375 Z M 33.921875 34.84375 "/></g></g></g></g></g></g></g></g></g></mask><clipPath id="8293b87bd1"><path d="M 0 26.277344 L 178.511719 26.277344 L 178.511719 255.398438 L 0 255.398438 Z M 0 26.277344 " clip-rule="nonzero"/></clipPath><clipPath id="045c6177db"><rect x="0" width="179" y="0" height="280"/></clipPath><clipPath id="1f73e128d9"><rect x="0" width="179" y="0" height="280"/></clipPath><clipPath id="1ff9a7db8a"><rect x="0" width="179" y="0" height="282"/></clipPath></defs><g transform="matrix(1, 0, 0, 1, 0, 56)"><g clip-path="url(#a502a79b0f)"><g clip-path="url(#e649a9aeb0)"><g transform="matrix(1, 0, 0, 1, 0, 0)"><g clip-path="url(#13fe9c970f)"><g clip-path="url(#6b80f38900)"><g mask="url(#e711672cb5)"><g transform="matrix(1, 0, 0, 1, 0, 0)"><g clip-path="url(#9273315eba)"><g clip-path="url(#670f4c6b12)"><path fill="url(#e8fe040164)" d="M 0 0.757812 L 0 260.949219 L 375 260.949219 L 375 0.757812 Z M 0 0.757812 " fill-rule="nonzero"/></g></g></g></g></g></g></g></g></g></g><g transform="matrix(1, 0, 0, 1, 0, 47)"><g clip-path="url(#1ff9a7db8a)"><g clip-path="url(#04be3fb433)"><g transform="matrix(1, 0, 0, 1, 0, 0)"><g clip-path="url(#1f73e128d9)"><g clip-path="url(#f06e3aab73)"><g mask="url(#ba9c5dede4)"><g transform="matrix(1, 0, 0, 1, 0, 0)"><g clip-path="url(#045c6177db)"><g clip-path="url(#8293b87bd1)"><path fill="url(#c0ca5396c5)" d="M 178.511719 26.277344 L 0 26.277344 L 0 255.398438 L 178.511719 255.398438 Z M 178.511719 26.277344 " fill-rule="nonzero"/></g></g></g></g></g></g></g></g></g></g></svg>