<svg xmlns="http://www.w3.org/2000/svg" xmlns:xlink="http://www.w3.org/1999/xlink" width="1920" zoomAndPan="magnify" viewBox="0 0 1440 809.999993" height="1080" preserveAspectRatio="xMidYMid meet" version="1.0"><defs><clipPath id="9acd5ba9fb"><path d="M 461.191406 144 L 978.691406 144 L 978.691406 663 L 461.191406 663 Z M 461.191406 144 " clip-rule="nonzero"/></clipPath></defs><g clip-path="url(#9acd5ba9fb)"><path fill="#f7f4e9" d="M 902.40625 585.4375 L 825.6875 585.4375 L 825.6875 465.28125 C 825.6875 436.640625 825.175781 399.746094 785.789062 399.746094 C 746.40625 399.746094 739.714844 430.976562 739.714844 463.207031 L 739.714844 585.4375 L 662.996094 585.4375 L 662.996094 338.335938 L 736.664062 338.335938 L 736.664062 372.105469 L 737.6875 372.105469 C 752.707031 346.417969 780.636719 331.085938 810.355469 332.183594 C 888.121094 332.183594 902.453125 383.335938 902.453125 449.875 L 902.453125 585.4375 Z M 576.390625 304.570312 C 551.804688 304.570312 531.855469 284.644531 531.855469 260.054688 C 531.855469 235.46875 551.777344 215.519531 576.367188 215.519531 C 600.953125 215.519531 620.902344 235.445312 620.902344 260.03125 C 620.902344 284.621094 600.980469 304.570312 576.390625 304.570312 M 614.773438 585.4375 L 537.957031 585.4375 L 537.957031 338.335938 L 614.773438 338.335938 Z M 940.667969 144.246094 L 499.402344 144.246094 C 478.550781 144.027344 461.4375 160.726562 461.191406 181.582031 L 461.191406 624.675781 C 461.4375 645.550781 478.527344 662.253906 499.402344 662.03125 L 940.667969 662.03125 C 961.566406 662.300781 978.734375 645.574219 979.027344 624.675781 L 979.027344 181.554688 C 978.734375 160.65625 961.566406 143.953125 940.667969 144.222656 " fill-opacity="1" fill-rule="nonzero"/></g></svg>